<?xml version="1.0" encoding="utf-8"?>
<!-- Generator: Adobe Illustrator 22.0.0, SVG Export Plug-In . SVG Version: 6.00 Build 0)  -->
<svg version="1.1" id="outlined" xmlns="http://www.w3.org/2000/svg" xmlns:xlink="http://www.w3.org/1999/xlink" x="0px" y="0px"
	 viewBox="0 0 64 64" style="enable-background:new 0 0 64 64;" xml:space="preserve">
<g>
	<path d="M31.993,61.878C15.535,61.878,2.146,48.475,2.146,32c0-0.848,0.037-1.71,0.109-2.562c0.029-0.351,0.242-0.661,0.559-0.814
		c0.317-0.154,0.692-0.13,0.985,0.062l12.303,8.062c0.462,0.303,0.591,0.923,0.288,1.385c-0.301,0.462-0.922,0.591-1.384,0.288
		L4.154,31.31C4.148,31.541,4.146,31.771,4.146,32c0,15.372,12.492,27.878,27.848,27.878c10.95,0,20.927-6.464,25.415-16.467
		c0.226-0.503,0.818-0.729,1.321-0.503c0.504,0.226,0.729,0.818,0.503,1.322C54.422,54.95,43.73,61.878,31.993,61.878z"/>
</g>
<g>
	<path d="M60.749,35.476c-0.191,0-0.383-0.055-0.548-0.164l-12.303-8.061c-0.462-0.303-0.591-0.922-0.289-1.384
		c0.304-0.46,0.923-0.592,1.385-0.289l10.852,7.11c0.006-0.231,0.009-0.461,0.009-0.691c0-15.372-12.492-27.878-27.848-27.878
		c-10.95,0-20.927,6.464-25.415,16.467c-0.225,0.504-0.817,0.73-1.321,0.503c-0.504-0.226-0.729-0.818-0.503-1.322
		C9.578,9.048,20.27,2.12,32.007,2.12c16.458,0,29.848,13.403,29.848,29.878c0,0.848-0.037,1.71-0.109,2.562
		c-0.029,0.351-0.241,0.661-0.559,0.814C61.048,35.443,60.898,35.476,60.749,35.476z"/>
</g>
</svg>
